<svg data-noselect="" viewBox="0 0 400 300" width="400" height="300" preserveAspectRatio="none" version="1.1" xmlns="http://www.w3.org/2000/svg" style="background: rgba(255, 255, 255, 0);"><defs></defs> <g id="shape_wvqUgM5oUp" transform="translate(113.15789473684211,52.63157894736842) rotate(0,0,0) scale(1.7543859649122806,1.7543859649122806)" filter="" style="cursor: move; opacity: 1;"><g><rect fill="rgba(0,0,0,0)" width="119" height="87" x="-10" y="-10"></rect><svg version="1.1" id="图层_1" xmlns="http://www.w3.org/2000/svg" xmlns:xlink="http://www.w3.org/1999/xlink" x="0px" y="0px" style="enable-background:new 0 0 283.46 226.77;" xml:space="preserve" viewBox="91.50166320800781 80.21800231933594 99.56478881835938 67.87300109863281" width="99" height="67" preserveAspectRatio="none" data-parent="shape_wvqUgM5oUp">
<g>
	
		<linearGradient id="SVGID_1_" gradientUnits="userSpaceOnUse" x1="146.2053" y1="70.3958" x2="91.4222" y2="116.1701" gradientTransform="matrix(1 0 -0.2679 1 9.8171 0)">
		<stop offset="0" style="" stop-color="#E22425"></stop>
		<stop offset="0.0112" style="" stop-color="#E12529"></stop>
		<stop offset="0.0286" style="" stop-color="#E12734"></stop>
		<stop offset="0.0502" style="" stop-color="#E02946"></stop>
		<stop offset="0.075" style="" stop-color="#DF2C5E"></stop>
		<stop offset="0.1022" style="" stop-color="#DD2E7B"></stop>
		<stop offset="0.1071" style="" stop-color="#DC2E80"></stop>
		<stop offset="0.3061" style="" stop-color="#623A8E"></stop>
		<stop offset="0.7092" style="" stop-color="#34B5B5"></stop>
		<stop offset="1" style="" stop-color="#28569E"></stop>
	</linearGradient>
	<path style="" d="M110.31,85.59h15.625c1.483,0,3.007-1.203,3.405-2.686c0.397-1.483-0.483-2.686-1.966-2.686
		h-15.625c-1.483,0-3.008,1.203-3.405,2.686C107.946,84.388,108.826,85.59,110.31,85.59z" fill="url(#SVGID_1_)"></path>
	
		<linearGradient id="SVGID_2_" gradientUnits="userSpaceOnUse" x1="150.0492" y1="74.9963" x2="95.2656" y2="120.7709" gradientTransform="matrix(1 0 -0.2679 1 9.8171 0)">
		<stop offset="0" style="" stop-color="#E22425"></stop>
		<stop offset="0.0112" style="" stop-color="#E12529"></stop>
		<stop offset="0.0286" style="" stop-color="#E12734"></stop>
		<stop offset="0.0502" style="" stop-color="#E02946"></stop>
		<stop offset="0.075" style="" stop-color="#DF2C5E"></stop>
		<stop offset="0.1022" style="" stop-color="#DD2E7B"></stop>
		<stop offset="0.1071" style="" stop-color="#DC2E80"></stop>
		<stop offset="0.3061" style="" stop-color="#623A8E"></stop>
		<stop offset="0.7092" style="" stop-color="#34B5B5"></stop>
		<stop offset="1" style="" stop-color="#28569E"></stop>
	</linearGradient>
	<path style="" d="M108.216,93.403h15.626c1.483,0,3.007-1.202,3.405-2.686
		c0.397-1.483-0.483-2.686-1.966-2.686h-15.625c-1.483,0-3.008,1.203-3.405,2.686C105.853,92.201,106.733,93.403,108.216,93.403z" fill="url(#SVGID_2_)"></path>
	
		<linearGradient id="SVGID_3_" gradientUnits="userSpaceOnUse" x1="153.8929" y1="79.5966" x2="99.1092" y2="125.3714" gradientTransform="matrix(1 0 -0.2679 1 9.8171 0)">
		<stop offset="0" style="" stop-color="#E22425"></stop>
		<stop offset="0.0112" style="" stop-color="#E12529"></stop>
		<stop offset="0.0286" style="" stop-color="#E12734"></stop>
		<stop offset="0.0502" style="" stop-color="#E02946"></stop>
		<stop offset="0.075" style="" stop-color="#DF2C5E"></stop>
		<stop offset="0.1022" style="" stop-color="#DD2E7B"></stop>
		<stop offset="0.1071" style="" stop-color="#DC2E80"></stop>
		<stop offset="0.3061" style="" stop-color="#623A8E"></stop>
		<stop offset="0.7092" style="" stop-color="#34B5B5"></stop>
		<stop offset="1" style="" stop-color="#28569E"></stop>
	</linearGradient>
	<path style="" d="M106.123,101.215h15.625c1.483,0,3.007-1.202,3.405-2.686
		c0.397-1.483-0.483-2.686-1.966-2.686h-15.625c-1.483,0-3.008,1.203-3.405,2.686C103.759,100.013,104.64,101.215,106.123,101.215z" fill="url(#SVGID_3_)"></path>
	
		<linearGradient id="SVGID_4_" gradientUnits="userSpaceOnUse" x1="165.9799" y1="84.9549" x2="103.7934" y2="136.9151" gradientTransform="matrix(1 0 -0.2679 1 9.8171 0)">
		<stop offset="0" style="" stop-color="#E22425"></stop>
		<stop offset="0.0112" style="" stop-color="#E12529"></stop>
		<stop offset="0.0286" style="" stop-color="#E12734"></stop>
		<stop offset="0.0502" style="" stop-color="#E02946"></stop>
		<stop offset="0.075" style="" stop-color="#DF2C5E"></stop>
		<stop offset="0.1022" style="" stop-color="#DD2E7B"></stop>
		<stop offset="0.1071" style="" stop-color="#DC2E80"></stop>
		<stop offset="0.3061" style="" stop-color="#623A8E"></stop>
		<stop offset="0.7092" style="" stop-color="#34B5B5"></stop>
		<stop offset="1" style="" stop-color="#28569E"></stop>
	</linearGradient>
	<path style="" d="M104.029,109.028h33.925c1.483,0,3.007-1.203,3.405-2.686
		c0.397-1.483-0.482-2.685-1.966-2.685h-33.925c-1.483,0-3.008,1.202-3.405,2.685C101.666,107.825,102.546,109.028,104.029,109.028z
		" fill="url(#SVGID_4_)"></path>
	
		<linearGradient id="SVGID_5_" gradientUnits="userSpaceOnUse" x1="172.3199" y1="101.6516" x2="117.5365" y2="147.4261" gradientTransform="matrix(1 0 -0.2679 1 9.8171 0)">
		<stop offset="0" style="" stop-color="#E22425"></stop>
		<stop offset="0.0112" style="" stop-color="#E12529"></stop>
		<stop offset="0.0286" style="" stop-color="#E12734"></stop>
		<stop offset="0.0502" style="" stop-color="#E02946"></stop>
		<stop offset="0.075" style="" stop-color="#DF2C5E"></stop>
		<stop offset="0.1022" style="" stop-color="#DD2E7B"></stop>
		<stop offset="0.1071" style="" stop-color="#DC2E80"></stop>
		<stop offset="0.3061" style="" stop-color="#623A8E"></stop>
		<stop offset="0.7092" style="" stop-color="#34B5B5"></stop>
		<stop offset="1" style="" stop-color="#28569E"></stop>
	</linearGradient>
	<path style="" d="M101.936,116.84h44.677h15.626h7.568c1.483,0,3.007-1.202,3.405-2.686
		c0.397-1.483-0.483-2.686-1.966-2.686h-7.568h-15.626h-44.677c-1.483,0-3.007,1.202-3.405,2.686
		C99.572,115.638,100.453,116.84,101.936,116.84z" fill="url(#SVGID_5_)"></path>
	
		<linearGradient id="SVGID_6_" gradientUnits="userSpaceOnUse" x1="180.0906" y1="108.0681" x2="123.4042" y2="155.4326" gradientTransform="matrix(1 0 -0.2679 1 9.8171 0)">
		<stop offset="0" style="" stop-color="#E22425"></stop>
		<stop offset="0.0112" style="" stop-color="#E12529"></stop>
		<stop offset="0.0286" style="" stop-color="#E12734"></stop>
		<stop offset="0.0502" style="" stop-color="#E02946"></stop>
		<stop offset="0.075" style="" stop-color="#DF2C5E"></stop>
		<stop offset="0.1022" style="" stop-color="#DD2E7B"></stop>
		<stop offset="0.1071" style="" stop-color="#DC2E80"></stop>
		<stop offset="0.3061" style="" stop-color="#623A8E"></stop>
		<stop offset="0.7092" style="" stop-color="#34B5B5"></stop>
		<stop offset="1" style="" stop-color="#28569E"></stop>
	</linearGradient>
	<path style="" d="M181.353,119.282h-19.768h-15.626h-44.677c-1.483,0-3.008,1.203-3.405,2.686
		c-0.398,1.482,0.483,2.685,1.966,2.685h44.677h15.625h19.769c1.483,0,3.008-1.203,3.405-2.685
		C183.716,120.484,182.836,119.282,181.353,119.282z" fill="url(#SVGID_6_)"></path>
	
		<linearGradient id="SVGID_7_" gradientUnits="userSpaceOnUse" x1="177.4125" y1="94.7597" x2="114.7966" y2="147.0787" gradientTransform="matrix(1 0 -0.2679 1 9.8171 0)">
		<stop offset="0" style="" stop-color="#E22425"></stop>
		<stop offset="0.0112" style="" stop-color="#E12529"></stop>
		<stop offset="0.0286" style="" stop-color="#E12734"></stop>
		<stop offset="0.0502" style="" stop-color="#E02946"></stop>
		<stop offset="0.075" style="" stop-color="#DF2C5E"></stop>
		<stop offset="0.1022" style="" stop-color="#DD2E7B"></stop>
		<stop offset="0.1071" style="" stop-color="#DC2E80"></stop>
		<stop offset="0.3061" style="" stop-color="#623A8E"></stop>
		<stop offset="0.7092" style="" stop-color="#34B5B5"></stop>
		<stop offset="1" style="" stop-color="#28569E"></stop>
	</linearGradient>
	<path style="" d="M123.35,127.094H99.188c-1.483,0-3.007,1.202-3.405,2.686
		c-0.398,1.483,0.483,2.686,1.966,2.686h24.162c1.483,0,3.007-1.202,3.405-2.686C125.713,128.296,124.832,127.094,123.35,127.094z" fill="url(#SVGID_7_)"></path>
	
		<linearGradient id="SVGID_8_" gradientUnits="userSpaceOnUse" x1="173.1113" y1="102.5999" x2="118.328" y2="148.3743" gradientTransform="matrix(1 0 -0.2679 1 9.8171 0)">
		<stop offset="0" style="" stop-color="#E22425"></stop>
		<stop offset="0.0112" style="" stop-color="#E12529"></stop>
		<stop offset="0.0286" style="" stop-color="#E12734"></stop>
		<stop offset="0.0502" style="" stop-color="#E02946"></stop>
		<stop offset="0.075" style="" stop-color="#DF2C5E"></stop>
		<stop offset="0.1022" style="" stop-color="#DD2E7B"></stop>
		<stop offset="0.1071" style="" stop-color="#DC2E80"></stop>
		<stop offset="0.3061" style="" stop-color="#623A8E"></stop>
		<stop offset="0.7092" style="" stop-color="#34B5B5"></stop>
		<stop offset="1" style="" stop-color="#28569E"></stop>
	</linearGradient>
	<path style="" d="M112.72,134.907H97.095c-1.483,0-3.008,1.202-3.405,2.686
		c-0.397,1.483,0.482,2.685,1.966,2.685h15.625c1.483,0,3.007-1.202,3.405-2.685C115.083,136.109,114.203,134.907,112.72,134.907z" fill="url(#SVGID_8_)"></path>
	
		<linearGradient id="SVGID_9_" gradientUnits="userSpaceOnUse" x1="176.9548" y1="107.2003" x2="122.1714" y2="152.9748" gradientTransform="matrix(1 0 -0.2679 1 9.8171 0)">
		<stop offset="0" style="" stop-color="#E22425"></stop>
		<stop offset="0.0112" style="" stop-color="#E12529"></stop>
		<stop offset="0.0286" style="" stop-color="#E12734"></stop>
		<stop offset="0.0502" style="" stop-color="#E02946"></stop>
		<stop offset="0.075" style="" stop-color="#DF2C5E"></stop>
		<stop offset="0.1022" style="" stop-color="#DD2E7B"></stop>
		<stop offset="0.1071" style="" stop-color="#DC2E80"></stop>
		<stop offset="0.3061" style="" stop-color="#623A8E"></stop>
		<stop offset="0.7092" style="" stop-color="#34B5B5"></stop>
		<stop offset="1" style="" stop-color="#28569E"></stop>
	</linearGradient>
	<path style="" d="M110.627,142.719H95.002c-1.483,0-3.007,1.202-3.405,2.686
		c-0.397,1.483,0.482,2.686,1.966,2.686h15.625c1.483,0,3.007-1.202,3.405-2.686C112.99,143.921,112.11,142.719,110.627,142.719z" fill="url(#SVGID_9_)"></path>
	
		<linearGradient id="SVGID_10_" gradientUnits="userSpaceOnUse" x1="164.5732" y1="92.3789" x2="109.7898" y2="138.1534" gradientTransform="matrix(1 0 -0.2679 1 9.8171 0)">
		<stop offset="0" style="" stop-color="#E22425"></stop>
		<stop offset="0.0112" style="" stop-color="#E12529"></stop>
		<stop offset="0.0286" style="" stop-color="#E12734"></stop>
		<stop offset="0.0502" style="" stop-color="#E02946"></stop>
		<stop offset="0.075" style="" stop-color="#DF2C5E"></stop>
		<stop offset="0.1022" style="" stop-color="#DD2E7B"></stop>
		<stop offset="0.1071" style="" stop-color="#DC2E80"></stop>
		<stop offset="0.3061" style="" stop-color="#623A8E"></stop>
		<stop offset="0.7092" style="" stop-color="#34B5B5"></stop>
		<stop offset="1" style="" stop-color="#28569E"></stop>
	</linearGradient>
	<path style="" d="M154.987,85.59h15.625c1.482,0,3.007-1.203,3.405-2.686
		c0.397-1.483-0.483-2.686-1.966-2.686h-15.626c-1.483,0-3.008,1.203-3.405,2.686C152.623,84.388,153.504,85.59,154.987,85.59z" fill="url(#SVGID_10_)"></path>
	
		<linearGradient id="SVGID_11_" gradientUnits="userSpaceOnUse" x1="168.4169" y1="96.9795" x2="113.6332" y2="142.7543" gradientTransform="matrix(1 0 -0.2679 1 9.8171 0)">
		<stop offset="0" style="" stop-color="#E22425"></stop>
		<stop offset="0.0112" style="" stop-color="#E12529"></stop>
		<stop offset="0.0286" style="" stop-color="#E12734"></stop>
		<stop offset="0.0502" style="" stop-color="#E02946"></stop>
		<stop offset="0.075" style="" stop-color="#DF2C5E"></stop>
		<stop offset="0.1022" style="" stop-color="#DD2E7B"></stop>
		<stop offset="0.1071" style="" stop-color="#DC2E80"></stop>
		<stop offset="0.3061" style="" stop-color="#623A8E"></stop>
		<stop offset="0.7092" style="" stop-color="#34B5B5"></stop>
		<stop offset="1" style="" stop-color="#28569E"></stop>
	</linearGradient>
	<path style="" d="M152.893,93.403h15.626c1.483,0,3.008-1.202,3.405-2.686
		c0.397-1.483-0.483-2.686-1.966-2.686h-15.626c-1.482,0-3.008,1.203-3.405,2.686C150.53,92.201,151.411,93.403,152.893,93.403z" fill="url(#SVGID_11_)"></path>
	
		<linearGradient id="SVGID_12_" gradientUnits="userSpaceOnUse" x1="172.2605" y1="101.58" x2="117.4765" y2="147.355" gradientTransform="matrix(1 0 -0.2679 1 9.8171 0)">
		<stop offset="0" style="" stop-color="#E22425"></stop>
		<stop offset="0.0112" style="" stop-color="#E12529"></stop>
		<stop offset="0.0286" style="" stop-color="#E12734"></stop>
		<stop offset="0.0502" style="" stop-color="#E02946"></stop>
		<stop offset="0.075" style="" stop-color="#DF2C5E"></stop>
		<stop offset="0.1022" style="" stop-color="#DD2E7B"></stop>
		<stop offset="0.1071" style="" stop-color="#DC2E80"></stop>
		<stop offset="0.3061" style="" stop-color="#623A8E"></stop>
		<stop offset="0.7092" style="" stop-color="#34B5B5"></stop>
		<stop offset="1" style="" stop-color="#28569E"></stop>
	</linearGradient>
	<path style="" d="M150.8,101.215h15.626c1.483,0,3.007-1.202,3.405-2.686
		c0.397-1.483-0.483-2.686-1.966-2.686h-15.626c-1.482,0-3.008,1.203-3.405,2.686C148.436,100.013,149.317,101.215,150.8,101.215z" fill="url(#SVGID_12_)"></path>
	
		<linearGradient id="SVGID_13_" gradientUnits="userSpaceOnUse" x1="176.1044" y1="106.1806" x2="121.321" y2="151.9551" gradientTransform="matrix(1 0 -0.2679 1 9.8171 0)">
		<stop offset="0" style="" stop-color="#E22425"></stop>
		<stop offset="0.0112" style="" stop-color="#E12529"></stop>
		<stop offset="0.0286" style="" stop-color="#E12734"></stop>
		<stop offset="0.0502" style="" stop-color="#E02946"></stop>
		<stop offset="0.075" style="" stop-color="#DF2C5E"></stop>
		<stop offset="0.1022" style="" stop-color="#DD2E7B"></stop>
		<stop offset="0.1071" style="" stop-color="#DC2E80"></stop>
		<stop offset="0.3061" style="" stop-color="#623A8E"></stop>
		<stop offset="0.7092" style="" stop-color="#34B5B5"></stop>
		<stop offset="1" style="" stop-color="#28569E"></stop>
	</linearGradient>
	<path style="" d="M148.706,109.028h15.626c1.483,0,3.007-1.203,3.405-2.686
		c0.397-1.483-0.483-2.685-1.966-2.685h-15.626c-1.483,0-3.008,1.202-3.405,2.685C146.343,107.825,147.224,109.028,148.706,109.028z
		" fill="url(#SVGID_13_)"></path>
	
		<linearGradient id="SVGID_14_" gradientUnits="userSpaceOnUse" x1="190.0039" y1="119.9394" x2="131.0019" y2="169.2388" gradientTransform="matrix(1 0 -0.2679 1 9.8171 0)">
		<stop offset="0" style="" stop-color="#E22425"></stop>
		<stop offset="0.0112" style="" stop-color="#E12529"></stop>
		<stop offset="0.0286" style="" stop-color="#E12734"></stop>
		<stop offset="0.0502" style="" stop-color="#E02946"></stop>
		<stop offset="0.075" style="" stop-color="#DF2C5E"></stop>
		<stop offset="0.1022" style="" stop-color="#DD2E7B"></stop>
		<stop offset="0.1071" style="" stop-color="#DC2E80"></stop>
		<stop offset="0.3061" style="" stop-color="#623A8E"></stop>
		<stop offset="0.7092" style="" stop-color="#34B5B5"></stop>
		<stop offset="1" style="" stop-color="#28569E"></stop>
	</linearGradient>
	<path style="" d="M164.125,127.094h-20.26c-1.482,0-3.007,1.202-3.405,2.686
		c-0.397,1.483,0.483,2.686,1.966,2.686h20.26c1.484,0,3.007-1.202,3.405-2.686C166.489,128.296,165.609,127.094,164.125,127.094z" fill="url(#SVGID_14_)"></path>
	
		<linearGradient id="SVGID_15_" gradientUnits="userSpaceOnUse" x1="191.4793" y1="124.5829" x2="136.6955" y2="170.3577" gradientTransform="matrix(1 0 -0.2679 1 9.8171 0)">
		<stop offset="0" style="" stop-color="#E22425"></stop>
		<stop offset="0.0112" style="" stop-color="#E12529"></stop>
		<stop offset="0.0286" style="" stop-color="#E12734"></stop>
		<stop offset="0.0502" style="" stop-color="#E02946"></stop>
		<stop offset="0.075" style="" stop-color="#DF2C5E"></stop>
		<stop offset="0.1022" style="" stop-color="#DD2E7B"></stop>
		<stop offset="0.1071" style="" stop-color="#DC2E80"></stop>
		<stop offset="0.3061" style="" stop-color="#623A8E"></stop>
		<stop offset="0.7092" style="" stop-color="#34B5B5"></stop>
		<stop offset="1" style="" stop-color="#28569E"></stop>
	</linearGradient>
	<path style="" d="M157.397,134.907h-15.625c-1.482,0-3.008,1.202-3.405,2.686
		c-0.398,1.483,0.483,2.685,1.966,2.685h15.626c1.483,0,3.007-1.202,3.405-2.685C159.761,136.109,158.88,134.907,157.397,134.907z" fill="url(#SVGID_15_)"></path>
	
		<linearGradient id="SVGID_16_" gradientUnits="userSpaceOnUse" x1="195.3227" y1="129.1834" x2="140.5393" y2="174.9579" gradientTransform="matrix(1 0 -0.2679 1 9.8171 0)">
		<stop offset="0" style="" stop-color="#E22425"></stop>
		<stop offset="0.0112" style="" stop-color="#E12529"></stop>
		<stop offset="0.0286" style="" stop-color="#E12734"></stop>
		<stop offset="0.0502" style="" stop-color="#E02946"></stop>
		<stop offset="0.075" style="" stop-color="#DF2C5E"></stop>
		<stop offset="0.1022" style="" stop-color="#DD2E7B"></stop>
		<stop offset="0.1071" style="" stop-color="#DC2E80"></stop>
		<stop offset="0.3061" style="" stop-color="#623A8E"></stop>
		<stop offset="0.7092" style="" stop-color="#34B5B5"></stop>
		<stop offset="1" style="" stop-color="#28569E"></stop>
	</linearGradient>
	<path style="" d="M155.304,142.719h-15.626c-1.483,0-3.007,1.202-3.405,2.686
		c-0.397,1.483,0.483,2.686,1.966,2.686h15.626c1.483,0,3.007-1.202,3.405-2.686C157.668,143.921,156.787,142.719,155.304,142.719z" fill="url(#SVGID_16_)"></path>
	
		<linearGradient id="SVGID_17_" gradientUnits="userSpaceOnUse" x1="182.1717" y1="113.4428" x2="127.3862" y2="159.219" gradientTransform="matrix(1 0 -0.2679 1 9.8171 0)">
		<stop offset="0" style="" stop-color="#E22425"></stop>
		<stop offset="0.0112" style="" stop-color="#E12529"></stop>
		<stop offset="0.0286" style="" stop-color="#E12734"></stop>
		<stop offset="0.0502" style="" stop-color="#E02946"></stop>
		<stop offset="0.075" style="" stop-color="#DF2C5E"></stop>
		<stop offset="0.1022" style="" stop-color="#DD2E7B"></stop>
		<stop offset="0.1071" style="" stop-color="#DC2E80"></stop>
		<stop offset="0.3061" style="" stop-color="#623A8E"></stop>
		<stop offset="0.7092" style="" stop-color="#34B5B5"></stop>
		<stop offset="1" style="" stop-color="#28569E"></stop>
	</linearGradient>
	<path style="" d="M171.383,108.906c1.45,0,2.939-1.175,3.328-2.625c0.389-1.45-0.472-2.624-1.921-2.624
		c-1.45,0-2.94,1.174-3.328,2.624C169.073,107.731,169.934,108.906,171.383,108.906z" fill="url(#SVGID_17_)"></path>
	
		<linearGradient id="SVGID_18_" gradientUnits="userSpaceOnUse" x1="189.3829" y1="122.0733" x2="134.599" y2="167.8483" gradientTransform="matrix(1 0 -0.2679 1 9.8171 0)">
		<stop offset="0" style="" stop-color="#E22425"></stop>
		<stop offset="0.0112" style="" stop-color="#E12529"></stop>
		<stop offset="0.0286" style="" stop-color="#E12734"></stop>
		<stop offset="0.0502" style="" stop-color="#E02946"></stop>
		<stop offset="0.075" style="" stop-color="#DF2C5E"></stop>
		<stop offset="0.1022" style="" stop-color="#DD2E7B"></stop>
		<stop offset="0.1071" style="" stop-color="#DC2E80"></stop>
		<stop offset="0.3061" style="" stop-color="#623A8E"></stop>
		<stop offset="0.7092" style="" stop-color="#34B5B5"></stop>
		<stop offset="1" style="" stop-color="#28569E"></stop>
	</linearGradient>
	<path style="" d="M177.392,116.78c1.449,0,2.939-1.175,3.327-2.625c0.389-1.45-0.472-2.624-1.921-2.624
		c-1.45,0-2.939,1.174-3.328,2.624C175.081,115.605,175.941,116.78,177.392,116.78z" fill="url(#SVGID_18_)"></path>
	
		<linearGradient id="SVGID_19_" gradientUnits="userSpaceOnUse" x1="193.5982" y1="127.1191" x2="138.8131" y2="172.895" gradientTransform="matrix(1 0 -0.2679 1 9.8171 0)">
		<stop offset="0" style="" stop-color="#E22425"></stop>
		<stop offset="0.0112" style="" stop-color="#E12529"></stop>
		<stop offset="0.0286" style="" stop-color="#E12734"></stop>
		<stop offset="0.0502" style="" stop-color="#E02946"></stop>
		<stop offset="0.075" style="" stop-color="#DF2C5E"></stop>
		<stop offset="0.1022" style="" stop-color="#DD2E7B"></stop>
		<stop offset="0.1071" style="" stop-color="#DC2E80"></stop>
		<stop offset="0.3061" style="" stop-color="#623A8E"></stop>
		<stop offset="0.7092" style="" stop-color="#34B5B5"></stop>
		<stop offset="1" style="" stop-color="#28569E"></stop>
	</linearGradient>
	<path style="" d="M189.051,111.531c-1.45,0-2.939,1.174-3.327,2.624c-0.389,1.45,0.471,2.625,1.921,2.625
		c1.449,0,2.939-1.175,3.328-2.625C191.362,112.705,190.501,111.531,189.051,111.531z" fill="url(#SVGID_19_)"></path>
	
		<linearGradient id="SVGID_20_" gradientUnits="userSpaceOnUse" x1="196.6606" y1="128.4515" x2="141.8766" y2="174.2265" gradientTransform="matrix(1 0 -0.2679 1 9.8171 0)">
		<stop offset="0" style="" stop-color="#E22425"></stop>
		<stop offset="0.0112" style="" stop-color="#E12529"></stop>
		<stop offset="0.0286" style="" stop-color="#E12734"></stop>
		<stop offset="0.0502" style="" stop-color="#E02946"></stop>
		<stop offset="0.075" style="" stop-color="#DF2C5E"></stop>
		<stop offset="0.1022" style="" stop-color="#DD2E7B"></stop>
		<stop offset="0.1071" style="" stop-color="#DC2E80"></stop>
		<stop offset="0.3061" style="" stop-color="#623A8E"></stop>
		<stop offset="0.7092" style="" stop-color="#34B5B5"></stop>
		<stop offset="1" style="" stop-color="#28569E"></stop>
	</linearGradient>
	<path style="" d="M170.823,127.156c-1.45,0-2.939,1.174-3.328,2.624c-0.389,1.45,0.472,2.624,1.921,2.624
		c1.449,0,2.939-1.175,3.328-2.624C173.133,128.331,172.271,127.156,170.823,127.156z" fill="url(#SVGID_20_)"></path>
</g>
</svg></g> <!----></g><g id="shapge_5pfaRM5IOA" transform="translate(92.10526315789474,180.7017543859649) rotate(0,0,0) scale(1.7543859649122806,1.7543859649122806)" filter="" style="cursor: move; opacity: 1;"><g><svg xmlns="http://www.w3.org/2000/svg" version="1.1" xmlns:xlink="http://www.w3.org/1999/xlink" overflow="hidden" style="top:0; left: 0" width="123" height="38" viewBox="0 0 123.871 38.279999999999994" preserveAspectRatio="none" data-parent="shapge_5pfaRM5IOA"><rect fill="rgba(0,0,0,0)" width="123" height="38"></rect> <rect opacity="0"></rect><g transform="translate(0 0)" data-width="118.871"><path fill="#E22425" d="M5.60 0L2.90 0L2.90-21.26L5.60-21.26L5.60-12.35L15.52-12.35L15.52-21.26L18.18-21.26L18.18 0L15.52 0L15.52-10.03L5.60-10.03L5.60 0Z" transform="translate(0 25.52)"></path><path fill="#E22425" d="M9.02 0.38L9.02 0.38L9.02 0.38Q6.93 0.38 5.22-0.59L5.22-0.59L5.22-0.59Q3.51-1.57 2.49-3.42L2.49-3.42L2.49-3.42Q1.48-5.28 1.48-7.86L1.48-7.86L1.48-7.86Q1.48-10.41 2.49-12.27L2.49-12.27L2.49-12.27Q3.51-14.12 5.13-15.14L5.13-15.14L5.13-15.14Q6.76-16.15 8.58-16.15L8.58-16.15L8.58-16.15Q11.60-16.15 13.22-14.14L13.22-14.14L13.22-14.14Q14.85-12.12 14.85-8.76L14.85-8.76L14.85-8.76Q14.85-7.89 14.73-7.25L14.73-7.25L4.12-7.25L4.12-7.25Q4.29-4.70 5.70-3.22L5.70-3.22L5.70-3.22Q7.11-1.74 9.34-1.74L9.34-1.74L9.34-1.74Q10.50-1.74 11.46-2.07L11.46-2.07L11.46-2.07Q12.41-2.41 13.28-2.99L13.28-2.99L14.24-1.25L14.24-1.25Q13.20-0.55 11.92-0.09L11.92-0.09L11.92-0.09Q10.64 0.38 9.02 0.38ZM4.09-9.13L4.09-9.13L12.53-9.13L12.53-9.13Q12.53-13.92 8.61-14.04L8.61-14.04L8.61-14.04Q6.93-14.04 5.66-12.76L5.66-12.76L5.66-12.76Q4.38-11.48 4.09-9.13Z" transform="translate(21.112000000000002 25.52)"></path><path fill="#E22425" d="M6.79 0.38L6.79 0.38L6.79 0.38Q5.10 0.38 3.58-0.23L3.58-0.23L3.58-0.23Q2.06-0.84 0.90-1.80L0.90-1.80L2.20-3.54L2.20-3.54Q3.22-2.70 4.34-2.19L4.34-2.19L4.34-2.19Q5.45-1.68 6.87-1.68L6.87-1.68L6.87-1.68Q8.44-1.68 9.21-2.41L9.21-2.41L9.21-2.41Q9.98-3.13 9.98-4.15L9.98-4.15L9.98-4.15Q9.98-4.96 9.44-5.50L9.44-5.50L9.44-5.50Q8.90-6.03 8.09-6.42L8.09-6.42L8.09-6.42Q7.28-6.82 6.38-7.13L6.38-7.13L6.38-7.13Q5.25-7.54 4.18-8.09L4.18-8.09L4.18-8.09Q3.10-8.64 2.39-9.50L2.39-9.50L2.39-9.50Q1.68-10.35 1.68-11.69L1.68-11.69L1.68-11.69Q1.68-13.57 3.12-14.86L3.12-14.86L3.12-14.86Q4.55-16.15 7.11-16.15L7.11-16.15L7.11-16.15Q8.55-16.15 9.82-15.63L9.82-15.63L9.82-15.63Q11.08-15.11 12.01-14.38L12.01-14.38L10.73-12.67L10.73-12.67Q9.92-13.28 9.05-13.67L9.05-13.67L9.05-13.67Q8.18-14.07 7.11-14.07L7.11-14.07L7.11-14.07Q5.63-14.07 4.93-13.40L4.93-13.40L4.93-13.40Q4.23-12.73 4.23-11.80L4.23-11.80L4.23-11.80Q4.23-11.08 4.68-10.61L4.68-10.61L4.68-10.61Q5.13-10.15 5.86-9.82L5.86-9.82L5.86-9.82Q6.58-9.48 7.42-9.19L7.42-9.19L7.42-9.19Q7.57-9.13 7.71-9.08L7.71-9.08L7.71-9.08Q8.87-8.67 9.98-8.12L9.98-8.12L9.98-8.12Q11.08-7.57 11.80-6.68L11.80-6.68L11.80-6.68Q12.53-5.80 12.53-4.29L12.53-4.29L12.53-4.29Q12.53-2.38 11.05-1.00L11.05-1.00L11.05-1.00Q9.57 0.38 6.79 0.38Z" transform="translate(37.178000000000004 25.52)"></path><path fill="#E22425" d="M7.25 0.38L7.25 0.38L7.25 0.38Q4.79 0.38 3.63-1.20L3.63-1.20L3.63-1.20Q2.47-2.78 2.47-5.77L2.47-5.77L2.47-15.75L5.10-15.75L5.10-6.09L5.10-6.09Q5.10-3.89 5.80-2.90L5.80-2.90L5.80-2.90Q6.50-1.91 8.06-1.91L8.06-1.91L8.06-1.91Q9.28-1.91 10.25-2.55L10.25-2.55L10.25-2.55Q11.22-3.19 12.33-4.58L12.33-4.58L12.33-15.75L14.96-15.75L14.96 0L12.76 0L12.56-2.47L12.47-2.47L12.47-2.47Q11.37-1.16 10.12-0.39L10.12-0.39L10.12-0.39Q8.87 0.38 7.25 0.38Z" transform="translate(50.75000000000001 25.52)"></path><path fill="#E22425" d="M5.31 0L2.67 0L2.67-15.75L4.84-15.75L5.08-13.49L5.16-13.49L5.16-13.49Q6.29-14.62 7.57-15.38L7.57-15.38L7.57-15.38Q8.85-16.15 10.44-16.15L10.44-16.15L10.44-16.15Q12.93-16.15 14.09-14.57L14.09-14.57L14.09-14.57Q15.25-12.99 15.25-9.98L15.25-9.98L15.25 0L12.62 0L12.62-9.63L12.62-9.63Q12.62-11.86 11.90-12.85L11.90-12.85L11.90-12.85Q11.19-13.83 9.63-13.83L9.63-13.83L9.63-13.83Q8.41-13.83 7.44-13.22L7.44-13.22L7.44-13.22Q6.47-12.62 5.31-11.43L5.31-11.43L5.31 0Z" transform="translate(68.35300000000001 25.52)"></path><path fill="#E22425" d="M10.32-22.94L10.32-22.94L9.74-20.94L9.74-20.94Q8.82-21.34 7.98-21.34L7.98-21.34L7.98-21.34Q5.71-21.34 5.74-18.24L5.74-18.24L5.74-15.75L9.08-15.75L9.08-13.60L5.74-13.60L5.74 0L3.10 0L3.10-13.60L0.96-13.60L0.96-15.60L3.10-15.75L3.10-18.27L3.10-18.27Q3.10-20.68 4.22-22.07L4.22-22.07L4.22-22.07Q5.34-23.46 7.69-23.46L7.69-23.46L7.69-23.46Q9.13-23.46 10.32-22.94Z" transform="translate(86.072 25.52)"></path><path fill="#E22425" d="M5.45 0.38L5.45 0.38L5.45 0.38Q3.97 0.38 3.32-0.54L3.32-0.54L3.32-0.54Q2.67-1.45 2.67-3.13L2.67-3.13L2.67-23.08L5.31-23.08L5.31-2.96L5.31-2.96Q5.31-2.35 5.54-2.09L5.54-2.09L5.54-2.09Q5.77-1.83 6.06-1.83L6.06-1.83L6.06-1.83Q6.18-1.83 6.29-1.84L6.29-1.84L6.29-1.84Q6.41-1.86 6.61-1.89L6.61-1.89L6.99 0.15L6.99 0.15Q6.50 0.38 5.45 0.38Z" transform="translate(95.497 25.52)"></path><path fill="#E22425" d="M2.93 6.79L2.93 6.79L2.93 6.79Q1.80 6.79 1.07 6.47L1.07 6.47L1.59 4.35L1.59 4.35Q1.83 4.44 2.16 4.52L2.16 4.52L2.16 4.52Q2.49 4.61 2.78 4.61L2.78 4.61L2.78 4.61Q4.15 4.61 5.02 3.65L5.02 3.65L5.02 3.65Q5.89 2.70 6.35 1.22L6.35 1.22L6.70 0.03L0.38-15.75L3.13-15.75L6.35-6.99L6.35-6.99Q6.44-6.70 6.55-6.41L6.55-6.41L6.55-6.41Q7.19-4.50 7.86-2.58L7.86-2.58L8.00-2.58L8.00-2.58Q8.29-3.48 8.55-4.44L8.55-4.44L8.55-4.44Q8.96-5.77 9.34-6.99L9.34-6.99L12.15-15.75L14.73-15.75L8.79 1.31L8.79 1.31Q8.24 2.87 7.47 4.10L7.47 4.10L7.47 4.10Q6.70 5.34 5.60 6.06L5.60 6.06L5.60 6.06Q4.50 6.79 2.93 6.79Z" transform="translate(103.762 25.52)"></path></g></svg></g> <!----></g>  <!----></svg>